<svg height="512" viewBox="0 0 128 128" width="512" xmlns="http://www.w3.org/2000/svg"><g id="Circle_Grid" data-name="Circle Grid"><circle cx="64" cy="64" fill="#69b0ee" r="64"/></g><g id="icon"><rect fill="#eeefee" height="71.837" rx="3.36" width="84" x="22" y="28.082"/><path d="m106 31.442v11.138h-84v-11.138a3.359 3.359 0 0 1 3.36-3.36h77.28a3.359 3.359 0 0 1 3.36 3.36z" fill="#ef5261"/><path d="m99.675 35.331a2.213 2.213 0 1 1 -2.218-2.209 2.214 2.214 0 0 1 2.218 2.209z" fill="#eeefee"/><path d="m90.225 35.331a2.213 2.213 0 1 1 -2.218-2.209 2.214 2.214 0 0 1 2.218 2.209z" fill="#eeefee"/><path d="m80.775 35.331a2.213 2.213 0 1 1 -2.218-2.209 2.214 2.214 0 0 1 2.218 2.209z" fill="#eeefee"/><g fill="#575b6d"><path d="m41.071 76.748h-2.159v-7.641h-8.438v7.641h-2.149v-16.235h2.148v6.667h8.438v-6.667h2.159z"/><path d="m56.243 62.44h-5.371v14.308h-2.16v-14.308h-5.326v-1.927h12.857z"/><path d="m70.1 62.44h-5.375v14.308h-2.159v-14.308h-5.327v-1.927h12.861z"/><path d="m72.411 60.513h6.057a12.77 12.77 0 0 1 3.339.371 3.6 3.6 0 0 1 2.132 1.606 5.036 5.036 0 0 1 .786 2.763 4.535 4.535 0 0 1 -1.561 3.732 7 7 0 0 1 -4.518 1.274h-4.087v6.489h-2.148zm2.148 7.818h4.108a4.454 4.454 0 0 0 2.951-.775 2.822 2.822 0 0 0 .88-2.237 3.109 3.109 0 0 0 -.487-1.728 2.107 2.107 0 0 0 -1.235-.952 8.863 8.863 0 0 0 -2.154-.2h-4.063z"/><path d="m93.662 77.025a7.439 7.439 0 0 1 -5.133-1.539 5.376 5.376 0 0 1 -1.788-3.953h2.071a3.364 3.364 0 0 0 1.512 2.685 5.861 5.861 0 0 0 3.25.869 5.119 5.119 0 0 0 2.907-.742 2.312 2.312 0 0 0 1.1-2.015 2.053 2.053 0 0 0 -1.141-1.949 16.4 16.4 0 0 0 -3.926-1.2 9.064 9.064 0 0 1 -4-1.644 3.524 3.524 0 0 1 -1.213-2.8 3.96 3.96 0 0 1 1.582-3.237 6.514 6.514 0 0 1 4.191-1.262 7.153 7.153 0 0 1 4.426 1.272 4.509 4.509 0 0 1 1.783 3.6h-2.089q-.321-2.946-4.031-2.946a4.879 4.879 0 0 0 -2.78.676 2.079 2.079 0 0 0 -.986 1.794 1.7 1.7 0 0 0 .792 1.528 10.043 10.043 0 0 0 2.957.986 27.9 27.9 0 0 1 3.438.941 5.5 5.5 0 0 1 2.182 1.445 3.717 3.717 0 0 1 .908 2.63 4.335 4.335 0 0 1 -1.667 3.477 6.579 6.579 0 0 1 -4.345 1.384z"/></g></g></svg>