<svg height="512" viewBox="0 0 128 128" width="512" xmlns="http://www.w3.org/2000/svg"><g id="Circle_Grid" data-name="Circle Grid"><circle cx="64" cy="64" fill="#69b0ee" r="64"/></g><g id="icon"><path d="m77.188 27.741v72.27c0 1.98-2.49 3.468-6.234 4.466-11.365 3.029-34.289 1.541-34.289-4.466v-72.27c-.001-7.655 40.523-7.655 40.523 0z" fill="#dbd8dd"/><path d="m70.953 33.976v70.5c-11.365 3.029-34.289 1.541-34.289-4.466v-70.316c11.365-2.903 34.289-1.475 34.289 4.282z" fill="#eeefee"/><path d="m61.656 76.332a4.728 4.728 0 0 1 -2.1 3.936v5.442a2.625 2.625 0 1 1 -5.25 0v-5.442a4.731 4.731 0 1 1 7.355-3.936z" fill="#414451"/><path d="m67.316 47.975a10.39 10.39 0 1 1 -10.39-10.39 10.375 10.375 0 0 1 10.39 10.39z" fill="#bbbbcd"/><path d="m64.937 50.354a10.347 10.347 0 0 1 -1.951 6.062 10.391 10.391 0 0 1 -14.5-14.5 10.39 10.39 0 0 1 16.451 8.439z" fill="#bbbbcd"/><path d="m99.336 47.757a4.265 4.265 0 0 1 -4.266 4.266h-37.734a4.266 4.266 0 0 1 -4.266-4.266 4.268 4.268 0 0 1 4.266-4.266h37.734a4.266 4.266 0 0 1 4.266 4.266z" fill="#4f5363"/><path d="m96.629 50.464a4.22 4.22 0 0 1 -.217 1.342 4.221 4.221 0 0 1 -1.342.217h-37.734a4.266 4.266 0 0 1 -4.266-4.266 4.22 4.22 0 0 1 .217-1.342 4.221 4.221 0 0 1 1.342-.217h37.734a4.266 4.266 0 0 1 4.266 4.266z" fill="#575b6d"/></g></svg>