<svg height="512" viewBox="0 0 128 128" width="512" xmlns="http://www.w3.org/2000/svg"><g id="Circle_Grid" data-name="Circle Grid"><circle cx="64" cy="64" fill="#3b5059" r="64"/></g><g id="icon"><path d="m22 32.128h84v63.745h-84z" fill="#e15649"/><g fill="#dbd8dd"><path d="m22 43.509h84v1.548h-84z"/><path d="m22 56.654h84v1.548h-84z"/><path d="m22 69.799h84v1.548h-84z"/><path d="m22 82.943h84v1.548h-84z"/><path d="m77.406 44.267h1.768v13.144h-1.768z"/><path d="m48.826 44.267h1.768v13.144h-1.768z"/><path d="m91.732 32.128h1.768v12.156h-1.768z"/><path d="m63.116 32.128h1.768v12.156h-1.768z"/><path d="m34.5 32.128h1.768v12.156h-1.768z"/><path d="m77.406 70.572h1.768v13.144h-1.768z"/><path d="m48.826 70.572h1.768v13.144h-1.768z"/><path d="m91.732 57.412h1.768v13.161h-1.768z"/><path d="m63.116 57.412h1.768v13.161h-1.768z"/><path d="m34.5 57.412h1.768v13.161h-1.768z"/><path d="m91.732 83.717h1.768v12.156h-1.768z"/><path d="m63.116 83.717h1.768v12.156h-1.768z"/><path d="m34.5 83.717h1.768v12.156h-1.768z"/></g></g></svg>