<svg height="512" viewBox="0 0 128 128" width="512" xmlns="http://www.w3.org/2000/svg"><g id="Circle_Grid" data-name="Circle Grid"><circle cx="64" cy="64" fill="#f6c863" r="64"/></g><g id="icon"><path d="m88.993 101.438h6.757a1 1 0 0 0 1-1v-5h-11.375l2.724 5.447a1 1 0 0 0 .894.553z" fill="#62667c"/><path d="m39.007 101.438h-6.757a1 1 0 0 1 -1-1v-5h11.375l-2.725 5.447a1 1 0 0 1 -.893.553z" fill="#62667c"/><rect fill="#828a9e" height="69.5" rx="3" width="79.5" x="24.25" y="26.562"/><path d="m31.25 33.562h65.5v55.5h-65.5z" fill="#62667c"/><path d="m48.929 55.525a4.727 4.727 0 1 1 -4.729-4.733 4.726 4.726 0 0 1 4.729 4.733z" fill="#eeefee"/><path d="m44.2 71.833a1.6 1.6 0 0 1 -1.6-1.544l-.533-14.405c0-1.939 4.271-1.939 4.271 0l-.538 14.405a1.6 1.6 0 0 1 -1.6 1.544z" fill="#dbd8dd"/><g fill="#eeefee"><path d="m75.349 48.13a13.182 13.182 0 1 0 13.176 13.177 13.171 13.171 0 0 0 -13.176-13.177zm0 22.384a9.2 9.2 0 1 1 9.2-9.207 9.224 9.224 0 0 1 -9.2 9.207z"/><circle cx="75.343" cy="61.312" r="1.995"/><rect height="5.646" rx="1.093" width="2.187" x="74.25" y="51.973"/><rect height="5.646" rx="1.093" width="2.187" x="74.25" y="65"/><rect height="5.646" rx="1.093" transform="matrix(0 1 -1 0 143.166 -20.547)" width="2.187" x="80.763" y="58.487"/><rect height="5.646" rx="1.093" transform="matrix(0 1 -1 0 130.139 -7.52)" width="2.187" x="67.736" y="58.487"/></g></g></svg>