<svg height="512" viewBox="0 0 128 128" width="512" xmlns="http://www.w3.org/2000/svg"><g id="Circle_Grid" data-name="Circle Grid"><circle cx="64" cy="64" fill="#2cbfae" r="64"/></g><g id="icon"><path d="m29.991 37.401h69.448v26.956h-69.448z" fill="#f6c863"/><g fill="#414451"><path d="m34.524 64.358h-5.248l11.331-26.957h5.248z"/><path d="m47.406 64.358h-5.248l11.331-26.957h5.248z"/><path d="m60.288 64.358h-5.249l11.332-26.957h5.248z"/><path d="m73.169 64.358h-5.248l11.331-26.957h5.249z"/><path d="m86.051 64.358h-5.248l11.331-26.957h5.248z"/></g><rect fill="#575b6d" height="58.326" rx="1.431" width="5.546" x="26.503" y="33.823"/><rect fill="#575b6d" height="58.326" rx="1.431" width="5.546" x="95.951" y="33.823"/><rect fill="#575b6d" height="5.248" rx="1.431" width="14.552" x="91.448" y="88.929"/><rect fill="#575b6d" height="5.248" rx="1.431" width="14.552" x="22" y="88.929"/></g></svg>