<svg height="512" viewBox="0 0 128 128" width="512" xmlns="http://www.w3.org/2000/svg"><g id="Circle_Grid" data-name="Circle Grid"><circle cx="64" cy="64" fill="#ea8953" r="64"/></g><g id="icon"><path d="m100.338 46.263v18.7a36.338 36.338 0 1 1 -72.675 0v-18.7z" fill="#eeefee"/><rect fill="#575b6d" height="16.575" rx="1.7" width="85" x="21.5" y="36.7"/><path d="m84.119 73.038v22.184a36.7 36.7 0 0 1 -4.25 2.439 36.431 36.431 0 0 1 -31.739 0 36.7 36.7 0 0 1 -4.25-2.439v-22.184a11.265 11.265 0 0 1 11.263-11.263h17.714a11.265 11.265 0 0 1 11.262 11.263z" fill="#828a9e"/><path d="m79.869 73.038v24.624a36.431 36.431 0 0 1 -31.739 0v-24.624a7.019 7.019 0 0 1 7.013-7.012h17.714a7.019 7.019 0 0 1 7.012 7.012z" fill="#575b6d"/><circle cx="64" cy="83.662" fill="#828a9e" r="9.282"/><circle cx="64" cy="83.662" fill="#69b0ee" r="5.634"/><circle cx="67.694" cy="79.597" fill="#eeefee" r="1.93"/><path d="m21.5 42.367h85v5.242h-85z" fill="#828a9e"/></g></svg>