<svg height="512" viewBox="0 0 128 128" width="512" xmlns="http://www.w3.org/2000/svg"><g id="Circle_Grid" data-name="Circle Grid"><circle cx="64" cy="64" fill="#ea8953" r="64"/></g><g id="icon"><rect fill="#575b6d" height="82" rx="4.052" width="51.322" x="38.339" y="23"/><path d="m41.426 30.139h45.148v63.092h-45.148z" fill="#69b0ee"/><circle cx="64" cy="98.961" fill="#828a9e" r="2.861"/><path d="m67.622 25.836h-7.244a.888.888 0 1 0 0 1.777h7.243a.888.888 0 1 0 0-1.777z" fill="#828a9e"/><g fill="#eeefee"><path d="m76.16 65.406a.617.617 0 0 1 -.379-.13c-3.17-2.456-2.7-4.659-2.279-6.6a11.652 11.652 0 0 0 .259-1.525 8.858 8.858 0 0 0 -.314-2.9 7.59 7.59 0 0 0 -1.572-3.008 10.607 10.607 0 0 0 -8.518-3.9c-6.316.289-9.5 7.009-9.535 7.077a.62.62 0 0 1 -1.124-.521c.141-.3 3.544-7.471 10.6-7.794a11.844 11.844 0 0 1 9.515 4.335 8.838 8.838 0 0 1 1.83 3.5 10.078 10.078 0 0 1 .357 3.305 12.737 12.737 0 0 1 -.283 1.688c-.39 1.817-.727 3.386 1.826 5.364a.62.62 0 0 1 -.38 1.109z"/><path d="m75.851 69.137a.624.624 0 0 1 -.154-.02c-6.466-1.657-6.093-5.688-6.038-6.094l.5-5.541a5.761 5.761 0 0 0 -2.582-5.2 5.834 5.834 0 0 0 -3.315-1h-1.088a5.635 5.635 0 0 0 -4.355 1.667 6.046 6.046 0 0 0 -1.286 2 7.457 7.457 0 0 1 -5.4 4.262.62.62 0 0 1 -.2-1.224 6.2 6.2 0 0 0 4.455-3.517 7.251 7.251 0 0 1 1.556-2.4 6.833 6.833 0 0 1 5.256-2.024h1.057a7.1 7.1 0 0 1 7.143 7.49v.039l-.5 5.577c0 .015 0 .029-.005.043-.018.129-.4 3.308 5.119 4.722a.62.62 0 0 1 -.153 1.22z"/><path d="m52.846 70.8a.62.62 0 0 1 -.1-1.231c8.131-1.337 13.022-8.158 13.071-8.227.064-.1 1.842-2.9.02-5.216a2.948 2.948 0 0 0 -3.186-1.081 2.037 2.037 0 0 0 -1.451 1.227 11.449 11.449 0 0 1 -9.315 7.054.62.62 0 0 1 -.1-1.235 10.2 10.2 0 0 0 8.262-6.281 3.276 3.276 0 0 1 2.327-1.972 4.2 4.2 0 0 1 4.431 1.524c2.378 3.019.129 6.532.032 6.68-.222.316-5.257 7.333-13.895 8.753a.623.623 0 0 1 -.096.005z"/><path d="m52.033 67.162a.62.62 0 0 1 -.124-1.227c9.465-1.952 11.2-8.275 11.22-8.339a.62.62 0 1 1 1.2.31c-.075.29-1.957 7.136-12.17 9.243a.628.628 0 0 1 -.126.013z"/><path d="m53.621 73.978a.62.62 0 0 1 -.161-1.218c.081-.022 8.13-2.23 11.877-6.845a1.478 1.478 0 0 1 2.379.117l.591.893a9.951 9.951 0 0 0 2.721 2.784 13.571 13.571 0 0 0 4.091 1.851.62.62 0 1 1 -.321 1.2 14.811 14.811 0 0 1 -4.464-2.021 11.184 11.184 0 0 1 -3.061-3.127l-.591-.893a.238.238 0 0 0 -.384-.02c-4 4.93-12.172 7.168-12.518 7.261a.625.625 0 0 1 -.159.018z"/><path d="m55.6 77.154a.62.62 0 0 1 -.238-1.192 56.494 56.494 0 0 0 9.4-5.022 1.649 1.649 0 0 1 2.044.076 22.588 22.588 0 0 0 6.69 4.041.62.62 0 1 1 -.4 1.173 23.379 23.379 0 0 1 -7.096-4.272.413.413 0 0 0 -.512-.015 56.6 56.6 0 0 1 -9.654 5.163.618.618 0 0 1 -.234.048z"/><path d="m58.172 79.922a.62.62 0 0 1 -.323-1.149 42.015 42.015 0 0 1 6.9-3.309 1.693 1.693 0 0 1 1.23.045l4.959 2.12a.62.62 0 0 1 -.487 1.139l-4.951-2.119a.459.459 0 0 0 -.333-.015 41.548 41.548 0 0 0 -6.67 3.2.616.616 0 0 1 -.325.088z"/><path d="m61.716 81.917a.62.62 0 0 1 -.346-1.134 9.866 9.866 0 0 1 3.786-1.5.61.61 0 0 1 .218.016 11.306 11.306 0 0 1 2.532.982.62.62 0 1 1 -.648 1.056 9.642 9.642 0 0 0 -2.083-.809 8.882 8.882 0 0 0 -3.115 1.28.617.617 0 0 1 -.344.109z"/></g></g></svg>