<svg height="512" viewBox="0 0 128 128" width="512" xmlns="http://www.w3.org/2000/svg"><g id="Circle_Grid" data-name="Circle Grid"><circle cx="64" cy="64" fill="#ef5261" r="64"/></g><g id="icon"><rect fill="#eeefee" height="73.837" rx="3.36" width="84" x="22" y="27.082"/><path d="m106 30.442v11.138h-84v-11.138a3.359 3.359 0 0 1 3.36-3.36h77.28a3.359 3.359 0 0 1 3.36 3.36z" fill="#2cbfae"/><path d="m99.675 34.331a2.213 2.213 0 1 1 -2.218-2.209 2.214 2.214 0 0 1 2.218 2.209z" fill="#eeefee"/><path d="m90.225 34.331a2.213 2.213 0 1 1 -2.218-2.209 2.214 2.214 0 0 1 2.218 2.209z" fill="#eeefee"/><path d="m80.775 34.331a2.213 2.213 0 1 1 -2.218-2.209 2.214 2.214 0 0 1 2.218 2.209z" fill="#eeefee"/><path d="m39.333 51.639h49.333v8.583h-49.333z" fill="#dbd8dd"/><path d="m39.333 65.972h49.333v8.583h-49.333z" fill="#dbd8dd"/><path d="m47.75 80.306h32.5v8.583h-32.5z" fill="#575b6d"/><path d="m55.313 82.722h17.375v3.75h-17.375z" fill="#dbd8dd"/><g fill="#575b6d"><circle cx="44.802" cy="55.931" r="1.802"/><circle cx="52.481" cy="55.931" r="1.802"/><circle cx="60.16" cy="55.931" r="1.802"/><circle cx="44.802" cy="70.264" r="1.802"/><circle cx="52.481" cy="70.264" r="1.802"/><circle cx="60.16" cy="70.264" r="1.802"/><circle cx="67.84" cy="70.264" r="1.802"/><circle cx="75.519" cy="70.264" r="1.802"/></g></g></svg>