<svg height="512" viewBox="0 0 128 128" width="512" xmlns="http://www.w3.org/2000/svg"><g id="Circle_Grid" data-name="Circle Grid"><circle cx="64" cy="64" fill="#f6c863" r="64"/></g><g id="icon"><g fill="#575b6d"><path d="m94.894 67.573a1.567 1.567 0 0 1 -.963-.33c-8.054-6.243-6.851-11.838-5.79-16.778a29.6 29.6 0 0 0 .659-3.874 22.506 22.506 0 0 0 -.8-7.374 19.285 19.285 0 0 0 -3.994-7.642c-3.363-3.921-10.639-10.428-21.642-9.92-16.046.735-24.146 17.809-24.226 17.981a1.574 1.574 0 0 1 -2.856-1.324c.359-.775 9-18.981 26.938-19.8 12.316-.563 20.438 6.658 24.176 11.015a22.455 22.455 0 0 1 4.651 8.9 25.6 25.6 0 0 1 .889 8.416 32.361 32.361 0 0 1 -.719 4.29c-.992 4.616-1.848 8.6 4.64 13.628a1.574 1.574 0 0 1 -.965 2.819z"/><path d="m94.109 77.052a1.584 1.584 0 0 1 -.392-.05c-16.429-4.21-15.481-14.451-15.342-15.482l1.271-14.078c.143-5.7-2.064-10.144-6.561-13.22a14.823 14.823 0 0 0 -8.422-2.53h-2.763a14.318 14.318 0 0 0 -11.064 4.235 15.361 15.361 0 0 0 -3.267 5.088c-3.834 9.152-13.322 10.765-13.724 10.829a1.574 1.574 0 0 1 -.5-3.109c.357-.059 8.181-1.444 11.32-8.936a18.424 18.424 0 0 1 3.954-6.107 17.36 17.36 0 0 1 13.358-5.146h2.685a18.038 18.038 0 0 1 18.13 19.031c0 .033 0 .066-.006.1l-1.279 14.167c0 .037-.008.073-.013.11-.047.327-1.024 8.4 13.005 12a1.575 1.575 0 0 1 -.39 3.1z"/><path d="m35.661 81.283a1.575 1.575 0 0 1 -.253-3.128c20.658-3.4 33.086-20.727 33.209-20.9.162-.253 4.68-7.376.05-13.253a7.491 7.491 0 0 0 -8.1-2.747 5.175 5.175 0 0 0 -3.678 3.112c-6.589 16.411-22.968 17.867-23.662 17.921a1.574 1.574 0 0 1 -.246-3.139c.633-.052 15.141-1.406 20.99-15.958a8.323 8.323 0 0 1 5.911-5.011 10.681 10.681 0 0 1 11.258 3.871c6.043 7.671.327 16.6.08 16.972-.564.8-13.356 18.631-35.3 22.239a1.582 1.582 0 0 1 -.259.021z"/><path d="m33.6 72.034a1.575 1.575 0 0 1 -.316-3.117c24.043-4.959 28.462-21.025 28.503-21.187a1.574 1.574 0 0 1 3.049.789c-.191.737-4.972 18.131-30.921 23.481a1.6 1.6 0 0 1 -.315.034z"/><path d="m37.63 89.351a1.575 1.575 0 0 1 -.408-3.1c.206-.051 20.655-5.661 30.178-17.387a3.754 3.754 0 0 1 6.045.3l1.5 2.268a25.284 25.284 0 0 0 6.913 7.068 34.481 34.481 0 0 0 10.4 4.7 1.574 1.574 0 1 1 -.815 3.041 37.63 37.63 0 0 1 -11.343-5.129 28.416 28.416 0 0 1 -7.776-7.946l-1.5-2.268a.605.605 0 0 0 -.975-.05c-10.176 12.526-30.931 18.213-31.81 18.452a1.588 1.588 0 0 1 -.409.051z"/><path d="m42.65 97.419a1.575 1.575 0 0 1 -.6-3.029c.147-.061 14.774-6.153 23.885-12.758a4.189 4.189 0 0 1 5.193.193c2.627 2.243 9.542 7.733 17 10.266a1.574 1.574 0 0 1 -1.013 2.981c-7.684-2.611-14.593-7.92-18.028-10.852a1.048 1.048 0 0 0 -1.3-.038c-9.423 6.824-23.923 12.864-24.536 13.118a1.57 1.57 0 0 1 -.601.119z"/><path d="m49.194 104.454a1.574 1.574 0 0 1 -.82-2.919 106.749 106.749 0 0 1 17.542-8.408 4.3 4.3 0 0 1 3.126.114l12.6 5.387a1.574 1.574 0 0 1 -1.238 2.895l-12.604-5.386a1.167 1.167 0 0 0 -.847-.038 105.563 105.563 0 0 0 -16.947 8.126 1.566 1.566 0 0 1 -.812.229z"/><path d="m58.2 109.521a1.574 1.574 0 0 1 -.878-2.882c.2-.135 5-3.323 9.619-3.8a1.55 1.55 0 0 1 .553.041 28.725 28.725 0 0 1 6.434 2.5 1.574 1.574 0 0 1 -1.647 2.684 24.5 24.5 0 0 0 -5.296-2.064c-3.773.5-7.872 3.223-7.914 3.252a1.566 1.566 0 0 1 -.871.269z"/></g><rect fill="#ef5261" height="8.833" rx="1" width="80" x="24" y="63.06"/></g></svg>