<svg height="512" viewBox="0 0 128 128" width="512" xmlns="http://www.w3.org/2000/svg"><g id="Circle_Grid" data-name="Circle Grid"><circle cx="64" cy="64" fill="#ea8953" r="64"/></g><g id="icon"><path d="m98.431 63.995s-15.423 18.505-34.421 18.505c-19.018 0-34.441-18.509-34.441-18.509s15.423-18.491 34.441-18.491c18.998 0 34.421 18.495 34.421 18.495z" fill="#eeefee"/><circle cx="64" cy="64" fill="#69b0ee" r="14.934"/><path d="m64 73.593a9.592 9.592 0 1 1 9.591-9.593 9.6 9.6 0 0 1 -9.591 9.593z" fill="#414451"/><g fill="#eeefee"><circle cx="70.733" cy="57.974" r="3.09"/><circle cx="60.877" cy="67.831" r="1.913"/><path d="m40.019 92.491h-15.746a1.605 1.605 0 0 1 -1.605-1.605v-15.747a1.605 1.605 0 0 1 3.21 0v14.142h14.141a1.605 1.605 0 1 1 0 3.21z"/><path d="m24.273 54.466a1.605 1.605 0 0 1 -1.605-1.605v-15.747a1.605 1.605 0 0 1 1.605-1.605h15.746a1.605 1.605 0 0 1 0 3.21h-14.141v14.142a1.605 1.605 0 0 1 -1.605 1.605z"/><path d="m103.727 54.466a1.605 1.605 0 0 1 -1.605-1.605v-14.142h-14.141a1.605 1.605 0 0 1 0-3.21h15.746a1.605 1.605 0 0 1 1.605 1.605v15.747a1.605 1.605 0 0 1 -1.605 1.605z"/><path d="m103.727 92.491h-15.746a1.605 1.605 0 0 1 0-3.21h14.141v-14.142a1.605 1.605 0 0 1 3.21 0v15.747a1.605 1.605 0 0 1 -1.605 1.605z"/></g><rect fill="#dbd8dd" height="3.135" rx="1.568" width="83" x="22.5" y="62.432"/></g></svg>