<svg height="512" viewBox="0 0 128 128" width="512" xmlns="http://www.w3.org/2000/svg"><g id="Circle_Grid" data-name="Circle Grid"><circle cx="64" cy="64" fill="#2cbfae" r="64"/></g><g id="icon"><path d="m84.318 65.042-6.51 2.6-5.829 5.829-3.829-3.834 3.617-3.617a.542.542 0 0 0 0-.766l-9.02-9.02a.542.542 0 0 0 -.766 0l-4 4-3.361-4.087 5.551-5.547 2.788-6.913z" fill="#eeefee"/><path d="m23.286 86.56h20.94v15.624h-20.94z" fill="#47505e" transform="matrix(.707 .707 -.707 .707 76.618 3.771)"/><path d="m28.431 81.495h27.259a0 0 0 0 1 0 0v7.05a2.1 2.1 0 0 1 -2.1 2.1h-23.063a2.1 2.1 0 0 1 -2.1-2.1v-7.05a0 0 0 0 1 0 0z" fill="#62667c" transform="matrix(.707 .707 -.707 .707 73.179 -4.532)"/><path d="m73.648 79.468-15.637 13.1a3.053 3.053 0 0 1 -4.119-.181l-18.41-18.407a3.053 3.053 0 0 1 -.182-4.12l13.1-15.637a3.053 3.053 0 0 1 4.5-.2l20.946 20.946a3.053 3.053 0 0 1 -.198 4.499z" fill="#575b6d"/><path d="m65.677 75.589-13.223-13.223a1.383 1.383 0 0 1 -.247-1.62l2.552-4.864 17.4 17.4-4.859 2.554a1.383 1.383 0 0 1 -1.623-.247z" fill="#62667c"/><path d="m100.6 49.415-22.143-22.146a2.562 2.562 0 0 0 -3.629.007l-13.043 13.043a2.562 2.562 0 0 0 -.007 3.629l22.146 22.146a2.562 2.562 0 0 0 3.629-.007l13.047-13.044a2.562 2.562 0 0 0 0-3.628zm-9.218 7.162a1.056 1.056 0 0 1 -1.5 0l-18.582-18.593a1.048 1.048 0 0 1 .007-1.491l4.3-4.3a1.04 1.04 0 0 1 1.484 0l18.583 18.597a1.048 1.048 0 0 1 .007 1.491z" fill="#575b6d"/><path d="m80.717 25.723h21a0 0 0 0 1 0 0v19.366a2.5 2.5 0 0 1 -2.5 2.5h-16.003a2.5 2.5 0 0 1 -2.5-2.5v-19.366a0 0 0 0 1 0 0z" fill="#47505e" transform="matrix(.707 .707 -.707 .707 52.635 -53.765)"/></g></svg>